<?xml version="1.0" encoding="UTF-8"?>
<svg xmlns="http://www.w3.org/2000/svg" xmlns:xlink="http://www.w3.org/1999/xlink" width="40px" height="30px" viewBox="0 0 40 30" version="1.1">
<g id="surface1">
<path style=" stroke:none;fill-rule:nonzero;fill:rgb(25.490198%,25.098041%,25.882354%);fill-opacity:1;" d="M 0.046875 10.457031 L 2.042969 10.457031 L 2.042969 11.835938 C 2.269531 11.359375 2.613281 10.96875 3.074219 10.667969 C 3.535156 10.363281 4.027344 10.214844 4.554688 10.214844 C 5.183594 10.214844 5.761719 10.433594 6.292969 10.875 C 6.820312 11.3125 7.242188 11.941406 7.5625 12.757812 C 7.878906 13.574219 8.039062 14.53125 8.039062 15.625 C 8.039062 16.71875 7.878906 17.6875 7.5625 18.496094 C 7.242188 19.308594 6.816406 19.925781 6.285156 20.351562 C 5.75 20.78125 5.175781 20.992188 4.554688 20.992188 C 4.019531 20.992188 3.519531 20.847656 3.058594 20.550781 C 2.601562 20.253906 2.261719 19.871094 2.042969 19.390625 L 2.042969 30.003906 L 0.046875 30.003906 Z M 5.453125 17.75 C 5.820312 17.199219 6.003906 16.488281 6.003906 15.621094 C 6.003906 14.757812 5.820312 14.023438 5.453125 13.464844 C 5.082031 12.90625 4.605469 12.625 4.023438 12.625 C 3.441406 12.625 2.960938 12.90625 2.589844 13.464844 C 2.214844 14.023438 2.027344 14.742188 2.027344 15.621094 C 2.027344 16.5 2.214844 17.199219 2.589844 17.75 C 2.960938 18.304688 3.441406 18.582031 4.023438 18.582031 C 4.605469 18.582031 5.082031 18.304688 5.453125 17.75 Z M 10.492188 20.351562 C 9.960938 19.925781 9.535156 19.304688 9.214844 18.496094 C 8.894531 17.683594 8.734375 16.726562 8.734375 15.621094 C 8.734375 14.515625 8.894531 13.574219 9.214844 12.757812 C 9.535156 11.941406 9.957031 11.3125 10.484375 10.871094 C 11.011719 10.433594 11.589844 10.210938 12.21875 10.210938 C 12.746094 10.210938 13.242188 10.363281 13.703125 10.664062 C 14.160156 10.96875 14.503906 11.355469 14.734375 11.832031 L 14.734375 10.515625 L 16.726562 10.515625 L 16.726562 20.691406 L 14.734375 20.691406 L 14.734375 19.390625 C 14.515625 19.867188 14.175781 20.253906 13.714844 20.550781 C 13.253906 20.84375 12.757812 20.992188 12.21875 20.992188 C 11.601562 20.992188 11.023438 20.777344 10.492188 20.351562 Z M 14.195312 17.75 C 14.5625 17.199219 14.746094 16.488281 14.746094 15.621094 C 14.746094 14.757812 14.5625 14.023438 14.195312 13.464844 C 13.824219 12.90625 13.347656 12.625 12.765625 12.625 C 12.183594 12.625 11.707031 12.90625 11.332031 13.464844 C 10.957031 14.023438 10.773438 14.742188 10.773438 15.621094 C 10.773438 16.5 10.957031 17.199219 11.332031 17.75 C 11.703125 18.304688 12.183594 18.582031 12.765625 18.582031 C 13.347656 18.582031 13.824219 18.304688 14.195312 17.75 Z M 21.195312 20.992188 C 20.066406 20.992188 19.230469 20.597656 18.695312 19.804688 C 18.15625 19.015625 17.890625 17.910156 17.890625 16.488281 L 17.890625 10.457031 L 19.910156 10.457031 L 19.910156 16.207031 C 19.910156 17 20.0625 17.59375 20.363281 17.996094 C 20.664062 18.398438 21.078125 18.601562 21.605469 18.601562 C 22.085938 18.601562 22.503906 18.378906 22.855469 17.941406 C 23.203125 17.5 23.378906 16.902344 23.378906 16.148438 L 23.378906 10.457031 L 25.375 10.457031 L 25.375 30 L 23.378906 30 L 23.378906 19.65625 C 22.90625 20.546875 22.179688 20.992188 21.195312 20.992188 Z M 27.070312 27.003906 L 38.148438 22.386719 L 38.148438 8.085938 L 25.375 3.597656 L 25.375 7.96875 L 23.378906 7.96875 L 23.378906 0 L 39.949219 6.011719 L 39.949219 24.382812 L 27.070312 29.90625 Z M 27.070312 27.003906 "/>
<path style=" stroke:none;fill-rule:nonzero;fill:rgb(0%,67.843139%,49.019608%);fill-opacity:1;" d="M 28.136719 10.457031 L 30.15625 10.457031 L 30.15625 16.207031 C 30.15625 17.816406 30.707031 18.617188 31.808594 18.617188 C 32.914062 18.617188 33.464844 17.816406 33.464844 16.207031 L 33.464844 10.457031 L 35.484375 10.457031 L 35.484375 16.488281 C 35.484375 17.894531 35.171875 19 34.542969 19.796875 C 33.914062 20.59375 33.003906 20.992188 31.8125 20.992188 C 30.617188 20.992188 29.707031 20.589844 29.078125 19.789062 C 28.449219 18.984375 28.136719 17.882812 28.136719 16.488281 Z M 28.136719 10.457031 "/>
</g>
</svg>
