<svg width="42" height="42" viewBox="0 0 42 42" fill="none" xmlns="http://www.w3.org/2000/svg">
<g clip-path="url(#clip0_2007_5311)">
<path d="M42 20.5057V21.5073C41.9891 21.5423 41.9815 21.5782 41.9773 21.6147C41.9601 22.3183 41.9058 23.0205 41.8146 23.7183C41.7169 24.4905 41.5752 25.2563 41.3901 26.0123C40.4825 29.7085 38.5888 33.0888 35.9111 35.7924C33.2334 38.496 29.8722 40.4214 26.1862 41.3633C25.2809 41.5934 24.3661 41.773 23.4358 41.864C22.8755 41.9198 22.3138 41.9753 21.7523 41.9917C21.1244 42.0099 20.4951 41.9903 19.8667 41.9739C19.5225 41.9686 19.1789 41.944 18.8374 41.9002C18.116 41.8003 17.3925 41.7033 16.6791 41.5604C14.9011 41.2041 13.2046 40.6026 11.5852 39.7872C7.5833 37.7721 4.32649 34.5348 2.28648 30.5441C0.869557 27.7645 0.121966 24.81 0.0123076 21.6946C-0.0181281 20.8202 0.0087755 19.9448 0.0928453 19.074C0.164055 18.3322 0.268481 17.5961 0.413176 16.8661C0.765079 15.0859 1.3506 13.3599 2.15452 11.7331C4.18959 7.60938 7.51528 4.26353 11.6257 2.2046C14.2946 0.870307 17.125 0.148076 20.1035 0.0199274C21.1517 -0.0278892 22.2019 0.0063578 23.2447 0.122355C23.9659 0.204298 24.6819 0.313782 25.3917 0.463782C27.964 1.00778 30.4091 2.03697 32.5964 3.49633C34.7275 4.91143 36.5471 6.65498 38.0355 8.73632C40.5262 12.2192 41.8401 16.1024 41.977 20.386C41.9813 20.4265 41.989 20.4665 42 20.5057ZM21.5678 26.2239C21.5547 26.2136 21.5424 26.2024 21.5309 26.1903C20.9805 25.4321 20.6549 24.534 20.5915 23.5991C20.5513 23.0583 20.5961 22.5145 20.7242 21.9875C21.2929 19.6526 23.4543 17.9248 25.9073 18.0969C26.5275 18.1362 27.134 18.2974 27.6921 18.5712C29.7201 19.5727 30.7928 21.7822 30.3869 24.0129C30.1125 25.5222 29.3042 26.691 28.0026 27.51C27.6655 27.717 27.3904 28.0111 27.2063 28.3613C26.5039 29.6978 25.5377 30.8778 24.3661 31.8297C24.1256 32.0259 23.869 32.2026 23.6281 32.3988C23.5737 32.4431 23.5186 32.5353 23.5287 32.5959C23.5387 32.6564 23.6279 32.7026 23.6895 32.7452C23.7214 32.768 23.7682 32.7716 23.8089 32.7766C24.1837 32.8221 24.5577 32.8879 24.9337 32.9063C26.9569 33.0069 28.9582 32.4498 30.6387 31.3183C33.451 29.4386 35.165 26.162 35.0317 22.695C35.0089 22.0993 34.9482 21.5098 34.8176 20.93C34.2982 18.6222 33.1195 16.7266 31.2375 15.2851C29.7182 14.122 27.9917 13.5067 26.0838 13.4052C25.5694 13.38 25.0537 13.3996 24.5427 13.4637C23.7806 13.5561 23.0326 13.7405 22.3149 14.0129C22.2749 14.0282 22.2335 14.0398 22.1802 14.0571C22.231 13.7803 22.2758 13.5206 22.3265 13.262C22.481 12.4731 22.4965 11.6842 22.3131 10.8982C22.1709 10.2891 21.9065 9.74034 21.4486 9.30377C20.7551 8.64368 19.9015 8.40012 18.9687 8.37053C18.7348 8.36348 18.582 8.4889 18.5278 8.7172C18.4955 8.85377 18.4734 8.99034 18.4482 9.1285C18.3068 9.89375 18.1658 10.6591 18.025 11.4245C17.9104 12.0485 17.7961 12.6726 17.6824 13.2969C17.6687 13.3715 17.6369 13.3988 17.5545 13.4029C17.2451 13.4193 16.9348 13.4348 16.6277 13.4735C15.8726 13.566 15.1322 13.7534 14.424 14.0314C14.3942 14.0402 14.3638 14.0467 14.333 14.051C14.3762 13.8158 14.4136 13.5928 14.4588 13.3715C14.6181 12.5887 14.6534 11.8041 14.4911 11.0177C14.3617 10.3897 14.1101 9.82 13.653 9.35817C12.9705 8.66917 12.1125 8.41446 11.1732 8.37236C10.8606 8.35847 10.7122 8.50005 10.6558 8.80961C10.5161 9.57896 10.3726 10.3474 10.2308 11.1163C10.0541 12.0749 9.87766 13.0334 9.70141 13.9918C9.5599 14.7607 9.41794 15.5295 9.27552 16.2982C9.14387 17.0154 9.01252 17.7325 8.88148 18.4497C8.727 19.2894 8.56501 20.1277 8.41895 20.9685C8.32795 21.492 8.24059 22.0196 8.18598 22.5488C8.13138 23.078 8.14844 23.6143 8.19554 24.1481C8.24582 24.7148 8.33204 25.2746 8.48584 25.8211C9.26983 28.6171 10.9375 30.6955 13.5408 32.0002C14.5523 32.5071 15.6321 32.7953 16.7585 32.8822C17.2322 32.9189 17.7113 32.9004 18.1877 32.8893C18.6953 32.8772 19.1944 32.788 19.6879 32.6701C21.5027 32.2376 23.0636 31.3476 24.3579 30.007C26.2169 28.0804 27.144 25.7621 27.1929 23.0903C27.1986 22.7776 27.167 22.4628 27.1324 22.1512C27.0778 21.6589 26.942 21.1886 26.7035 20.75C25.9685 19.3977 24.3652 19.4009 23.4752 20.1689C23.0573 20.5294 22.8496 21.0058 22.7326 21.5298C22.6189 22.0435 22.6118 22.5657 22.6189 23.0887C22.6245 23.7451 22.5008 24.3961 22.2548 25.0046C22.0829 25.4407 21.8517 25.851 21.5678 26.2239Z" fill="#E2623D"/>
<path d="M16.7755 18.1956C16.7095 18.5555 16.6458 18.8999 16.5833 19.2445C16.4204 20.1399 16.2461 21.0336 16.1 21.9317C16.0127 22.4894 15.9818 23.0545 16.0077 23.6184C16.0716 25.2144 16.4795 26.714 17.2626 28.1093C17.2785 28.1377 17.2913 28.1678 17.3229 28.2324C17.0485 28.1869 16.7996 28.1669 16.561 28.1045C14.5268 27.5737 13.2685 26.2656 12.8367 24.2211C12.3362 21.8498 13.5875 19.4985 15.7374 18.5245C16.0416 18.3868 16.3721 18.3067 16.6909 18.2011C16.7188 18.1963 16.7472 18.1945 16.7755 18.1956Z" fill="#E2623D"/>
</g>
<defs>
<clipPath id="clip0_2007_5311">
<rect width="42" height="42" fill="white"/>
</clipPath>
</defs>
</svg>
