<svg width="42" height="42" viewBox="0 0 42 42" fill="none" xmlns="http://www.w3.org/2000/svg">
<g clip-path="url(#clip0_2007_5353)">
<path d="M-1.82947e-05 21.0044C-0.0660886 9.57988 9.28594 -0.167259 21.3246 0.00017248C32.8861 0.1653 42.1582 9.68894 41.9977 21.3208C41.8394 32.8114 32.2776 42.2421 20.5287 41.9956C9.34356 41.7621 -0.0422726 32.5649 -1.82947e-05 21.0044ZM20.9958 41.0901C31.8129 41.1669 41.012 32.3759 41.1019 21.1711C41.1918 10.0637 32.3161 1.01014 21.2209 0.894933C9.83371 0.780496 0.921894 9.94623 0.883481 20.9069C0.840458 32.2838 10.141 41.1768 20.9958 41.0901Z" fill="#D84800"/>
<path d="M2.99084 21.0045C2.99084 11.0431 11.0522 2.95566 21.0188 2.99329C31.1814 3.03016 39.0315 11.2643 39.0015 21.0544C38.9715 31.0788 30.7373 39.0902 20.7937 39.0065C11.0092 38.9227 2.99161 30.8853 2.99084 21.0045ZM19.8357 25.3639C19.7328 25.2694 19.6667 25.2102 19.6052 25.1511C18.4306 23.9991 17.2298 22.8662 16.0927 21.6757C15.5941 21.1543 15.1148 20.9768 14.3887 21.0928C11.5001 21.5536 9.53104 23.0897 8.58454 25.8746C8.03447 27.4921 7.89311 29.1564 8.03447 30.8561C8.10208 31.6809 8.06904 31.5642 8.84422 31.5642C16.1898 31.5642 23.5354 31.5642 30.881 31.5642H31.4741C31.6638 29.6403 31.6108 27.7916 31.0008 25.9944C29.8484 22.5951 26.989 21.2057 24.5474 21.0414C24.3653 21.0437 24.1903 21.1129 24.0558 21.2357C23.5403 21.7126 23.0493 22.2157 22.5477 22.7072C21.6511 23.5851 20.7576 24.4599 19.8357 25.3639ZM19.7804 21.1558C21.4097 21.1394 22.9668 20.4814 24.1137 19.3244C25.2607 18.1675 25.9049 16.605 25.9066 14.9761C25.9083 13.3472 25.2674 11.7834 24.1229 10.624C22.9784 9.46465 21.4227 8.8033 19.7935 8.78351C18.9751 8.77357 18.1629 8.92602 17.4038 9.23203C16.6448 9.53805 15.954 9.99154 15.3715 10.5663C14.7889 11.141 14.3262 11.8255 14.0101 12.5802C13.694 13.3349 13.5308 14.1448 13.53 14.963C13.5291 15.7812 13.6906 16.5915 14.0051 17.3469C14.3196 18.1023 14.7809 18.7878 15.3622 19.3637C15.9435 19.9397 16.6333 20.3946 17.3917 20.7022C18.1501 21.0098 18.962 21.164 19.7804 21.1558ZM21.5113 7.64836C23.9582 8.33959 25.7214 9.77581 26.6686 12.0838C27.6159 14.3917 27.3785 16.6612 26.147 18.8471C27.9724 18.7649 30.1158 16.7235 30.745 14.5161C31.4672 11.9816 30.4285 9.21668 28.232 7.72362C26.1047 6.28125 23.2368 6.43793 21.5113 7.64836ZM27.5936 20.5713C27.647 20.6127 27.7044 20.6487 27.7649 20.6788C29.7025 21.3109 30.967 22.6604 31.8021 24.466C32.3153 25.5758 32.5927 26.7517 32.7279 27.9613C32.7532 28.1879 32.84 28.2724 33.0605 28.2686C33.7776 28.2634 34.4931 28.2634 35.2071 28.2686C35.456 28.2686 35.5505 28.1526 35.5336 27.9122C35.5067 27.5174 35.4975 27.1219 35.466 26.7271C35.3423 25.2033 35.0642 23.7164 34.3205 22.3578C33.1873 20.2841 31.4249 19.2672 29.0664 19.2856C28.9027 19.2856 28.6937 19.3409 28.5847 19.45C28.2428 19.7933 27.9393 20.1727 27.5928 20.5713H27.5936Z" fill="#D84800"/>
</g>
<defs>
<clipPath id="clip0_2007_5353">
<rect width="42" height="42" fill="white"/>
</clipPath>
</defs>
</svg>
