<svg width="41" height="42" viewBox="0 0 41 42" fill="none" xmlns="http://www.w3.org/2000/svg">
<path d="M35.0379 6.45292C31.3203 2.72876 26.2049 0.442383 20.537 0.442383C14.8688 0.442383 9.71649 2.72876 5.99929 6.45292C2.28173 10.1771 0 15.3394 0 21.0179C0 26.6964 2.28173 31.8218 5.99929 35.546C9.71649 39.2702 14.8323 41.5565 20.5002 41.5565C26.168 41.5565 31.2839 39.2702 35.0011 35.546C38.7183 31.8218 41 26.6964 41 21.0179C41 15.3394 38.7551 10.1771 35.0379 6.45292ZM34.3386 34.8454C30.8051 38.3854 25.9103 40.5976 20.5002 40.5976C15.0897 40.5976 10.1949 38.4223 6.66142 34.8454C3.12835 31.2688 0.956734 26.4012 0.956734 21.0179C0.956734 15.5977 3.16518 10.6933 6.69824 7.15356C10.2317 3.6135 15.1266 1.40128 20.537 1.40128C25.9471 1.40128 30.842 3.6135 34.3754 7.15356C37.9085 10.6933 40.1169 15.5977 40.1169 21.0179C40.0801 26.4012 37.9085 31.3057 34.3386 34.8454Z" fill="#1B2327"/>
<path d="M38.1663 20.8341C38.0926 11.1366 30.2163 3.31934 20.537 3.31934C10.8574 3.31934 2.98105 11.1366 2.87057 20.8341L10.9678 12.722L13.6911 15.4507L7.76583 21.3871H33.3078L27.3826 15.4507L30.1058 12.722L38.1663 20.8341ZM20.537 17.8105L12.9918 9.88293H17.9975V5.97429C17.9975 4.9785 19.1384 4.13065 20.537 4.13065C21.9353 4.13065 23.0765 4.9416 23.0765 5.97429V9.88293H28.0819L20.537 17.8105Z" fill="#1B2327"/>
<path d="M22.7083 30.9735C22.3035 30.7156 21.7884 30.4943 21.1991 30.2729C20.7208 30.1257 20.3529 29.9412 20.0583 29.7936C19.764 29.646 19.5431 29.4988 19.3958 29.3144C19.2488 29.1299 19.1752 28.9454 19.1752 28.6875C19.1752 28.503 19.2488 28.3186 19.359 28.1345C19.4694 27.95 19.6536 27.8024 19.9113 27.7286C20.1688 27.6183 20.5002 27.5445 20.9049 27.5445C21.236 27.5445 21.5306 27.5814 21.8248 27.6183C22.0826 27.6548 22.3404 27.7286 22.5241 27.8024C22.7451 27.8762 22.8924 27.95 23.0397 27.9869L23.4812 26.6225C23.2235 26.4749 22.8556 26.3646 22.4509 26.2908C22.0826 26.217 21.6779 26.1801 21.236 26.1432V24.7051H19.9846V26.217C19.8009 26.2539 19.5799 26.2908 19.3958 26.3646C18.9174 26.5118 18.5495 26.6963 18.2181 26.9546C17.887 27.2125 17.6293 27.4707 17.4819 27.8024C17.2982 28.1345 17.2245 28.503 17.2245 28.872C17.2245 29.3144 17.335 29.7198 17.5924 30.0519C17.8134 30.3836 18.1444 30.6787 18.5864 30.9366C19.0279 31.1949 19.5063 31.4163 20.1319 31.6004C20.5735 31.7479 20.9417 31.8955 21.1991 32.0431C21.4569 32.1903 21.6779 32.3748 21.7884 32.5593C21.8985 32.7434 21.9721 32.9647 21.9721 33.1861C21.9721 33.444 21.8985 33.6654 21.7515 33.8498C21.6042 34.0339 21.3833 34.1815 21.089 34.2922C20.7944 34.4029 20.4634 34.4398 20.0583 34.4398C19.7272 34.4398 19.3958 34.4029 19.1015 34.366C18.8069 34.2922 18.5127 34.2184 18.2181 34.1446C17.9607 34.0708 17.7029 33.9605 17.4819 33.8498L17.0404 35.2876C17.2245 35.3983 17.4819 35.509 17.7766 35.5828C18.0708 35.6566 18.4022 35.7304 18.7701 35.8042C19.1384 35.8411 19.5063 35.878 19.8745 35.878H19.9478V37.3526H21.1991V35.7673C21.3464 35.7304 21.4937 35.6935 21.6411 35.6566C22.1562 35.509 22.561 35.2876 22.8924 35.0297C23.2235 34.7715 23.4812 34.4767 23.6285 34.1077C23.7755 33.776 23.886 33.4071 23.886 33.0016C23.886 32.5593 23.7755 32.1534 23.5917 31.8217C23.4076 31.5266 23.113 31.2318 22.7083 30.9735Z" fill="#1B2327"/>
</svg>
