<svg width="35" height="43" viewBox="0 0 35 43" fill="none" xmlns="http://www.w3.org/2000/svg">
<g clip-path="url(#clip0_2008_5374)">
<path d="M26.0764 23.0342C26.0764 16.9962 26.0764 10.9574 26.0764 4.91775C26.0764 3.90364 26.257 2.92508 26.8199 2.04603C27.3198 1.26123 28.0502 0.654119 28.9088 0.309744C29.7673 -0.0346324 30.711 -0.0990133 31.6076 0.125621C32.4771 0.337795 33.2596 0.817959 33.8469 1.49956C34.4341 2.18117 34.7969 3.03045 34.8851 3.9297C34.9499 4.49607 34.9843 5.06556 34.9883 5.63568C34.9941 15.1666 35.0117 24.6987 34.9883 34.2297C34.9754 38.5302 32.215 41.6613 28.5846 42.4717C28.0889 42.5779 27.5845 42.6374 27.0778 42.6494C26.4446 42.6707 26.1456 42.3781 26.0823 41.7478C26.071 41.5703 26.069 41.3924 26.0764 41.2147V23.0342Z" fill="#235AF3"/>
<path d="M13.0746 23.0345C13.0746 16.9925 13.0746 21.8498 13.0746 15.8173C13.0746 14.8032 13.2563 13.8246 13.8192 12.9456C14.3187 12.1616 15.0483 11.5549 15.906 11.2106C16.7636 10.8663 17.7063 10.8014 18.6023 11.0252C19.4716 11.2372 20.2541 11.7174 20.8412 12.399C21.4283 13.0807 21.7908 13.93 21.8785 14.8293C21.9432 15.3956 21.978 15.9651 21.9829 16.5352C21.9888 26.0662 22.0063 24.699 21.9829 34.23C21.97 38.5304 19.2108 41.6616 15.5793 42.4719C15.0851 42.5779 14.5822 42.6374 14.0772 42.6496C13.444 42.671 13.1391 42.3784 13.0805 41.7481C13.0717 41.5705 13.0717 41.3926 13.0805 41.215L13.0746 23.0345Z" fill="#FFB000"/>
<path d="M0 31.6828C0 25.6408 0 34.6505 0 28.612C0 27.5979 0.181754 26.6194 0.744606 25.7403C1.24425 24.9564 1.97389 24.3499 2.83149 24.0056C3.68909 23.6613 4.63176 23.5964 5.52767 23.8199C6.39704 24.032 7.17953 24.5122 7.7666 25.1938C8.35367 25.8754 8.71621 26.7248 8.80394 27.624C8.86972 28.1903 8.90456 28.7598 8.9083 29.33C8.9083 38.8609 8.93175 25.0544 8.9083 34.5853C8.89658 38.8858 6.13626 42.017 2.50469 42.8273C2.01167 42.9332 1.50999 42.9927 1.0061 43.005C0.372889 43.0263 0.0738743 42.7337 0.00938086 42.1035C0.0005808 41.9259 0.0005808 41.7479 0.00938086 41.5703L0 31.6828Z" fill="#0D9DFF"/>
</g>
<defs>
<clipPath id="clip0_2008_5374">
<rect width="35" height="43" fill="white"/>
</clipPath>
</defs>
</svg>
