<svg width="39" height="42" viewBox="0 0 39 42" fill="none" xmlns="http://www.w3.org/2000/svg">
<g clip-path="url(#clip0_2007_5363)">
<path d="M27.2763 21.9074C28.4221 24.0704 29.5574 26.2123 30.6898 28.3542C30.8067 28.5758 30.9192 28.7988 31.0212 29.0264C31.142 29.264 31.1782 29.5361 31.1236 29.7972C31.069 30.0583 30.927 30.2928 30.7213 30.4614C30.5459 30.6458 30.3134 30.7648 30.0619 30.799C29.8104 30.8332 29.5548 30.7806 29.337 30.6498C28.5706 30.2338 27.8177 29.7907 27.0603 29.3535C25.3311 28.3557 23.5989 27.3624 21.8786 26.3479C21.5262 26.1414 21.3117 26.1233 20.9968 26.4565C19.9334 27.5809 18.5476 28.0587 17.0524 28.2261C16.376 28.3029 15.9425 27.9246 15.6786 27.296C15.0442 25.7887 14.8747 24.2648 15.4506 22.655L11.1658 20.1679C10.0424 19.5168 8.91612 18.8626 7.79429 18.219C7.19438 17.8768 6.83294 17.4216 7.00391 16.6905C7.17488 15.9595 7.7268 15.7258 8.40769 15.7032C10.7023 15.6249 12.9985 15.5193 15.2946 15.4922C15.9605 15.4922 16.2335 15.2767 16.421 14.6361C18.6256 7.15069 23.5179 2.3544 30.9582 0.138636C32.1655 -0.220106 32.7489 0.0964315 33.0459 1.33394C34.8351 8.76956 33.2439 15.352 28.0547 21.0105C27.8357 21.2502 27.6047 21.4838 27.3873 21.722C27.3457 21.7809 27.3086 21.8429 27.2763 21.9074ZM26.0375 13.8462C26.3685 13.8555 26.698 13.798 27.0066 13.6773C27.3152 13.5565 27.5965 13.3749 27.8342 13.1431C28.0718 12.9113 28.2608 12.634 28.3901 12.3276C28.5195 12.0212 28.5864 11.6919 28.5871 11.3591C28.5972 10.8561 28.4583 10.3614 28.188 9.93779C27.9178 9.51424 27.5284 9.18096 27.0693 8.98029C26.6102 8.77961 26.1021 8.7206 25.6095 8.81074C25.117 8.90088 24.6622 9.13611 24.303 9.48655C23.9437 9.83699 23.6962 10.2868 23.5918 10.7789C23.4875 11.2711 23.531 11.7832 23.7169 12.2504C23.9028 12.7176 24.2226 13.1188 24.6358 13.4029C25.049 13.687 25.5369 13.8413 26.0375 13.8462Z" fill="#2295FF"/>
<path d="M7.52436 37.8334C1.10084 32.9783 -1.8732 23.8153 1.24782 15.5687C4.72129 6.39668 13.6614 2.40077 20.5169 2.963C19.6095 4.00908 18.7336 5.04763 17.8173 6.04698C17.6583 6.21881 17.3223 6.2565 17.0584 6.29719C10.2089 7.38548 4.94925 12.2873 3.51697 19.0928C2.54512 23.7263 3.50047 28.0222 6.21656 32.0181L10.0005 25.5005L11.3983 26.2978C10.104 30.1641 8.82616 33.9671 7.52436 37.8334Z" fill="#466DD8"/>
<path d="M35.807 11.8281C39.9524 17.8107 40.4428 27.1621 35.0016 34.3219C29.3265 41.7861 19.6275 43.6748 12.2171 40.5667L20.2169 31.4248L21.6387 32.2418C20.3969 34.4033 19.1671 36.5316 17.8998 38.7383C20.1288 39.0187 22.3921 38.7858 24.5182 38.057C29.7674 36.2482 33.3444 32.7347 35.0526 27.4093C36.1894 23.8626 36.0875 20.3098 34.8007 16.8159C34.5517 16.1406 34.5202 15.5723 34.8007 14.8955C35.1981 13.9052 35.4711 12.8682 35.807 11.8281Z" fill="#466DD8"/>
<path d="M9.69601 39.3544L13.6374 27.54C15.2077 30.0105 15.4476 30.1552 18.0452 30.0769L9.8175 39.4645L9.69601 39.3544Z" fill="#F8954F"/>
</g>
<defs>
<clipPath id="clip0_2007_5363">
<rect width="39" height="42" fill="white"/>
</clipPath>
</defs>
</svg>
