<svg width="52" height="31" viewBox="0 0 52 31" fill="none" xmlns="http://www.w3.org/2000/svg">
<path fill-rule="evenodd" clip-rule="evenodd" d="M4.84187 0H47.1581C47.7941 -5.69292e-08 48.4239 0.125574 49.0115 0.369549C49.5991 0.613523 50.1329 0.971118 50.5826 1.4219C51.0322 1.87269 51.3888 2.40784 51.632 2.99677C51.8752 3.5857 52.0003 4.21689 52 4.85426V21.0331C52 21.6702 51.8747 22.301 51.6314 22.8896C51.388 23.4782 51.0314 24.013 50.5817 24.4634C50.1321 24.9138 49.5983 25.271 49.0109 25.5146C48.4234 25.7583 47.7939 25.8835 47.1581 25.8832H31.9817L34.0589 31L24.8908 25.8832H4.83573C3.55301 25.8816 2.32334 25.37 1.4167 24.4606C0.510062 23.5513 0.000541119 22.3185 0 21.0331V4.85426C-1.14615e-07 3.56719 0.510059 2.3328 1.41803 1.42251C2.326 0.512214 3.55754 0.000543758 4.84187 0Z" fill="#7D57A4"/>
<path d="M2.61731 4.39485C2.77746 4.19427 2.97959 4.03136 3.20943 3.91761C3.43927 3.80387 3.69121 3.74206 3.94749 3.73654C5.02665 3.66135 5.64604 4.17131 5.80566 5.26644C6.47143 9.70849 7.18428 13.4792 7.94419 16.5787L12.6019 7.7028C13.0234 6.90162 13.5562 6.47779 14.2001 6.4313C15.1333 6.36568 15.7166 6.96109 15.9499 8.21755C16.3882 10.7022 17.0618 13.1393 17.9615 15.4959C18.5209 10.0899 19.4547 6.18179 20.7631 3.77141C20.8893 3.50106 21.0867 3.27035 21.3341 3.10412C21.5815 2.93789 21.8694 2.84243 22.1669 2.82803C22.6513 2.78814 23.1321 2.93894 23.5073 3.24845C23.6989 3.39337 23.8562 3.57871 23.9683 3.79135C24.0805 4.00398 24.1445 4.23872 24.1561 4.47893C24.1903 4.83348 24.1191 5.19026 23.9514 5.50434C23.1219 7.04654 22.4398 9.61074 21.905 13.1969C21.377 16.6587 21.1819 19.3664 21.3197 21.3202C21.3681 21.799 21.2823 22.2819 21.0721 22.7147C20.97 22.9331 20.811 23.1199 20.6118 23.2553C20.4126 23.3906 20.1807 23.4696 19.9404 23.4838C19.3797 23.5248 18.821 23.2602 18.2582 22.6942C16.2827 20.6639 14.7138 17.6431 13.5514 13.6317C12.1871 16.3661 11.1639 18.4114 10.4818 19.7677C9.23344 22.174 8.16384 23.4079 7.27296 23.4694C6.6945 23.5104 6.20199 23.0237 5.79543 22.0092C4.70399 19.2242 3.53343 13.8361 2.28374 5.84477C2.23435 5.59318 2.23853 5.33397 2.29602 5.08411C2.3535 4.83425 2.46298 4.59937 2.61731 4.39485Z" fill="white"/>
<path d="M48.2959 7.74185C47.9448 7.10679 47.4584 6.55704 46.8712 6.1317C46.2841 5.70635 45.6106 5.41587 44.8988 5.28088C44.5193 5.20049 44.1325 5.15925 43.7446 5.15784C41.7091 5.15784 40.046 6.21947 38.7554 8.34274C37.6563 10.1483 37.0842 12.2264 37.1039 14.3414C37.1039 15.982 37.445 17.3882 38.1271 18.5599C38.4779 19.1956 38.9645 19.7459 39.5521 20.1713C40.1397 20.5967 40.8138 20.8868 41.5263 21.0208C41.9049 21.103 42.291 21.1449 42.6784 21.1459C44.7344 21.1459 46.3968 20.0843 47.6656 17.961C48.7645 16.1425 49.3371 14.0535 49.3191 11.9276C49.3191 10.2869 48.978 8.89167 48.2959 7.74185ZM45.615 13.6502C45.3245 15.0448 44.7856 16.0955 43.9984 16.8023C43.3749 17.3642 42.8032 17.5932 42.2834 17.4893C41.7637 17.3854 41.3469 16.9261 41.0331 16.1112C40.7926 15.4931 40.6658 14.8365 40.6586 14.1732C40.6566 13.6483 40.7087 13.1246 40.8141 12.6105C41.0167 11.7007 41.3979 10.8404 41.9356 10.0798C42.6423 9.03933 43.3803 8.60251 44.1498 8.76931C44.6696 8.87458 45.0857 9.3326 45.3981 10.1433C45.6378 10.7609 45.7639 11.4168 45.7706 12.0793C45.7732 12.6069 45.7211 13.1334 45.615 13.6502Z" fill="white"/>
<path d="M34.9775 7.74185C34.6264 7.10679 34.14 6.55704 33.5528 6.1317C32.9657 5.70635 32.2923 5.41587 31.5804 5.28088C31.2009 5.20049 30.8141 5.15925 30.4262 5.15784C28.3893 5.15784 26.727 6.21947 25.4391 8.34274C24.3385 10.1478 23.7656 12.2261 23.7855 14.3414C23.7855 15.982 24.1266 17.3882 24.8088 18.5599C25.159 19.1961 25.6454 19.7467 26.2331 20.1722C26.8208 20.5977 27.4952 20.8875 28.2079 21.0208C28.5865 21.103 28.9727 21.1449 29.36 21.1459C31.4174 21.1459 33.0805 20.0843 34.3493 17.961C35.4521 16.1435 36.0295 14.0547 36.0171 11.9276C36.0171 10.2869 35.676 8.89167 34.9939 7.74185H34.9775ZM32.2967 13.6502C32.0061 15.0475 31.4658 16.0996 30.6759 16.8064C30.0511 17.3683 29.4794 17.5973 28.961 17.4934C28.4426 17.3895 28.0271 16.9288 27.7147 16.1112C27.4743 15.4931 27.3474 14.8365 27.3402 14.1732C27.3382 13.6483 27.3903 13.1246 27.4957 12.6105C27.7001 11.7013 28.0812 10.8414 28.6172 10.0798C29.3212 9.04206 30.0592 8.60661 30.8314 8.77341C31.3512 8.87868 31.7667 9.3367 32.0777 10.1474C32.3179 10.7649 32.4448 11.4207 32.4522 12.0834C32.4543 12.6083 32.4022 13.132 32.2967 13.6461V13.6502Z" fill="white"/>
</svg>
